<svg xmlns="http://www.w3.org/2000/svg" width="50" height="50" viewBox="0 0 50 50"><path fill="#21B7D2" d="M32.97 19.1c-4.56 0-7.4 4.93-5.1 8.88 2.27 3.94 7.96 3.93 10.23-.02.52-.9.8-1.92.8-2.96 0-3.27-2.66-5.9-5.92-5.9z"/><path fill="#21B7D2" d="M16.9 30.9l-2.44 3.5C7.26 32.3 5 23.2 10.42 18c4.26-4.1 11.15-3.5 14.63 1.3l-2.44 3.45c-1.7-4.2-7.34-4.98-10.13-1.38-2.78 3.6-.63 8.86 3.87 9.47.2.03.37.05.56.05zm6.33-5.7l6.62-9.43c7.1-2.4 14.15 3.8 12.67 11.16-1.48 7.36-10.37 10.35-16 5.4-2.04-1.8-3.24-4.4-3.3-7.12zM25.03 0C5.78 0-6.24 20.83 3.37 37.5c9.62 16.67 33.66 16.67 43.27 0C48.85 33.7 50 29.4 50 25 50 11.2 38.8 0 25.02 0z"/></svg>